<svg viewBox="0 -0.06 33.834 33.834" xmlns="http://www.w3.org/2000/svg">
  <path d="M15.217 15.309a2.38 2.38 0 0 1 .489-1.434 9.3 9.3 0 0 1 1.443-1.482 10 10 0 0 0 1.321-1.372 2 2 0 0 0 .368-1.2 1.956 1.956 0 0 0-1.983-2 2.07 2.07 0 0 0-1.419.543 3.6 3.6 0 0 0-.954 1.582l-2.152-.939a5.03 5.03 0 0 1 1.724-2.656 4.63 4.63 0 0 1 2.9-.927 5 5 0 0 1 2.287.531 4.17 4.17 0 0 1 1.651 1.495 3.97 3.97 0 0 1 .612 2.175 3.7 3.7 0 0 1-.538 1.965 8.8 8.8 0 0 1-1.639 1.865 14 14 0 0 0-1.358 1.322 1.54 1.54 0 0 0-.379 1 3 3 0 0 0 .1.667h-2.2a2.7 2.7 0 0 1-.273-1.135m1.467 6.968a1.85 1.85 0 0 1-1.357-.543 1.83 1.83 0 0 1-.551-1.359 1.88 1.88 0 0 1 .551-1.372 1.84 1.84 0 0 1 1.357-.556 1.87 1.87 0 0 1 1.909 1.928 1.83 1.83 0 0 1-.55 1.359 1.86 1.86 0 0 1-1.359.543"/>
  <path d="M1.474 33.717a1.5 1.5 0 0 1-.626-.14A1.46 1.46 0 0 1 0 32.244V3.572A3.576 3.576 0 0 1 3.572 0h26.69a3.576 3.576 0 0 1 3.572 3.572v20.416a3.576 3.576 0 0 1-3.572 3.571H10.29a2.56 2.56 0 0 0-1.637.594l-6.24 5.22a1.47 1.47 0 0 1-.939.344M3.572 2A1.574 1.574 0 0 0 2 3.572V31.11l5.37-4.491a4.56 4.56 0 0 1 2.92-1.06h19.972a1.573 1.573 0 0 0 1.572-1.571V3.572A1.574 1.574 0 0 0 30.262 2Z"/>
</svg>
