<svg xmlns="http://www.w3.org/2000/svg" viewBox="0 0 64 64" xml:space="preserve">
  <path d="M43.507 15.441a1.02 1.02 0 0 0-.873-.292l-11.678 1.83a1 1 0 0 0-.372.138L21.42 15.16a1 1 0 0 0-.927.281L8.486 27.83a3.27 3.27 0 0 0-.74 3.37l1.729 4.94a5.65 5.65 0 0 0 1.522 2.302l1.676 1.526c-.278.67-.929 2.559-.436 4.583 1.291 5.298 4.593 8.537 10.391 10.195 1.133.324 2.324.43 3.395.43a18 18 0 0 0 3.145-.282 5.56 5.56 0 0 0 3.12.975c.476 0 .956-.06 1.43-.185 6.51-1.724 10.789-5.95 12.745-12.546a.98.98 0 0 0 .62-.339l5.122-6.382q.121-.153.231-.311l3.09-4.453a3.294 3.294 0 0 0-.339-4.16zm-20.33 37.382c-5.103-1.46-7.878-4.156-8.996-8.744-.242-.991-.08-1.969.105-2.641l12.839 11.695c-1.15.083-2.621.069-3.947-.31m21.545-10.846a21 21 0 0 1-.936 2.739l-10.262-9.122a.995.995 0 0 0-1.41.083 1 1 0 0 0 .082 1.411l10.498 9.332c.061.055.133.085.202.122a15 15 0 0 1-1.784 2.529L30.03 39.098a1 1 0 0 0-1.338 1.486l10.995 9.895a14.5 14.5 0 0 1-2.471 1.7 1 1 0 0 0-.192-.255l-10.498-9.33a.999.999 0 1 0-1.328 1.494l10.104 8.98a19 19 0 0 1-2.092.682 3.58 3.58 0 0 1-3.344-.825L12.344 36.963a3.6 3.6 0 0 1-.98-1.483l-1.73-4.94a1.28 1.28 0 0 1 .289-1.319l11.621-11.99 11.048 2.36c.673.143 1.29.473 1.785.952l3.437 3.333a3.05 3.05 0 0 1 .92 2.485 3.05 3.05 0 0 1-1.357 2.273l-.853.567c-2.654-2.38-4.773-4.276-4.773-4.276a1 1 0 0 0-1.343 1.482l5.277 4.84c.107.097.231.169.363.212 2.658 2.384 5.661 5.08 7.578 6.813a3.66 3.66 0 0 1 1.096 3.705m9.162-11.465-3.091 4.454q-.074.108-.151.203l-3.884 4.84a5.64 5.64 0 0 0-1.794-3.224 2977 2977 0 0 0-6.902-6.205l.421-.279a5.05 5.05 0 0 0 2.244-3.758 5.04 5.04 0 0 0-1.52-4.103l-3.438-3.333a5.7 5.7 0 0 0-.927-.712l7.59-1.19 11.319 11.68a1.29 1.29 0 0 1 .133 1.627M19.507 13.239l-4.808-4.815a1.004 1.004 0 0 0-1.415-.001L.494 21.196c-.39.39-.39 1.023 0 1.415L5.3 27.425a1.004 1.004 0 0 0 1.415 0l12.79-12.771c.39-.39.39-1.024 0-1.415M6.01 25.304l-3.395-3.4L13.99 10.546l3.395 3.4zm57.496-4.108L50.716 8.423a1 1 0 0 0-.707-.292h-.001c-.265 0-.52.106-.707.293l-4.808 4.815c-.39.391-.39 1.024.001 1.415l12.79 12.772c.188.187.443.292.707.292h.001a1 1 0 0 0 .707-.293l4.808-4.814c.39-.392.39-1.025-.001-1.415m-5.516 4.108-11.375-11.36 3.395-3.399 11.375 11.36z"/>
</svg>
